# xmcd
# Track frame offsets:
# 187
# 15035
# 24435
# 37132
# 48485
# 62022
# 72482
# 87717
# 99805
# 111575
# 121052
# 133262
# 145535
# 158722
# 171627
# 184407
# 198217
# 211830
# 223157
# 236272
# 248282
# 263040
#
# Disc length: 3682 seconds
# Revision: 0
# Processed by: cddbd v1.4PL0 Copyright (c) Steve Scherf et al.
# Submitted via: VisiTrax 2.9.5.180 - For more info visit www.synapsa.com
#
DISCID=360e6016
DTITLE=George Strait - Strait Country
DYEAR=1992
DGENRE=
TTITLE0=Does Fort Worth ever cross your mind
TTITLE1=Any old time
TTITLE2=I need someone like me
TTITLE3=Honky tonk saturday night
TTITLE4=I should have watched that first step
TTITLE5=Love comes from the other side of town
TTITLE6=The cowboy rides away
TTITLE7=What did you expect me to do
TTITLE8=The fireman
TTITLE9=Right or wrong
TTITLE10=A little heaven's rubbing off on me
TTITLE11=You're the cloud I'm on
TTITLE12=Let's fall to pieces together
TTITLE13=I'm satisfied with you
TTITLE14=Fifteen years going up
TTITLE15=Six pack to go
TTITLE16=A fire I can't put out
TTITLE17=I can't see Texas from here
TTITLE18=Amarillo by morning
TTITLE19=Fool hearted memory
TTITLE20=Does Fort  Worth ever cross your mind
TTITLE21=Amarillo by morning
EXTD=
EXTT0=
EXTT1=
EXTT2=
EXTT3=
EXTT4=
EXTT5=
EXTT6=
EXTT7=
EXTT8=
EXTT9=
EXTT10=
EXTT11=
EXTT12=
EXTT13=
EXTT14=
EXTT15=
EXTT16=
EXTT17=
EXTT18=
EXTT19=
EXTT20=
EXTT21=
PLAYORDER=
